<mxfile host="app.diagrams.net" modified="2023-05-30T09:16:18.667Z" agent="Mozilla/5.0 (X11; Linux x86_64; rv:109.0) Gecko/20100101 Firefox/113.0" etag="nnqj_lI1W1wyQNfHRQ2O" version="21.3.5">
  <diagram name="Page-1" id="fQS_KwMuj-EgF9CMgZ2f">
    <mxGraphModel dx="1195" dy="624" grid="1" gridSize="10" guides="1" tooltips="1" connect="1" arrows="1" fold="1" page="1" pageScale="1" pageWidth="850" pageHeight="1100" math="0" shadow="0">
      <root>
        <mxCell id="0" />
        <mxCell id="1" parent="0" />
        <mxCell id="FxfO93Z1PqSWa-7sWiaW-4" style="edgeStyle=orthogonalEdgeStyle;rounded=0;orthogonalLoop=1;jettySize=auto;html=1;entryX=0;entryY=0.5;entryDx=0;entryDy=0;" edge="1" parent="1" source="FxfO93Z1PqSWa-7sWiaW-1" target="FxfO93Z1PqSWa-7sWiaW-2">
          <mxGeometry relative="1" as="geometry" />
        </mxCell>
        <mxCell id="FxfO93Z1PqSWa-7sWiaW-1" value="&lt;font style=&quot;font-size: 20px;&quot;&gt;website&lt;/font&gt;" style="rounded=1;whiteSpace=wrap;html=1;fontSize=16;" vertex="1" parent="1">
          <mxGeometry x="140" y="280" width="120" height="60" as="geometry" />
        </mxCell>
        <mxCell id="FxfO93Z1PqSWa-7sWiaW-5" style="edgeStyle=orthogonalEdgeStyle;rounded=0;orthogonalLoop=1;jettySize=auto;html=1;exitX=0.5;exitY=1;exitDx=0;exitDy=0;strokeWidth=2;" edge="1" parent="1" source="FxfO93Z1PqSWa-7sWiaW-2" target="FxfO93Z1PqSWa-7sWiaW-3">
          <mxGeometry relative="1" as="geometry" />
        </mxCell>
        <mxCell id="FxfO93Z1PqSWa-7sWiaW-6" value="" style="edgeStyle=orthogonalEdgeStyle;rounded=0;orthogonalLoop=1;jettySize=auto;html=1;strokeWidth=2;" edge="1" parent="1" source="FxfO93Z1PqSWa-7sWiaW-2" target="FxfO93Z1PqSWa-7sWiaW-1">
          <mxGeometry relative="1" as="geometry" />
        </mxCell>
        <mxCell id="FxfO93Z1PqSWa-7sWiaW-2" value="&lt;div align=&quot;center&quot;&gt;&lt;font style=&quot;font-size: 20px;&quot;&gt;api&lt;/font&gt;&lt;/div&gt;" style="rounded=1;whiteSpace=wrap;html=1;fontSize=16;align=center;" vertex="1" parent="1">
          <mxGeometry x="330" y="280" width="120" height="60" as="geometry" />
        </mxCell>
        <mxCell id="FxfO93Z1PqSWa-7sWiaW-3" value="&lt;font style=&quot;font-size: 20px;&quot;&gt;db&lt;/font&gt;" style="rounded=1;whiteSpace=wrap;html=1;fontSize=16;" vertex="1" parent="1">
          <mxGeometry x="330" y="400" width="120" height="60" as="geometry" />
        </mxCell>
        <mxCell id="FxfO93Z1PqSWa-7sWiaW-7" value="&lt;font style=&quot;font-size: 14px;&quot;&gt;model&lt;/font&gt;" style="rounded=0;whiteSpace=wrap;html=1;" vertex="1" parent="1">
          <mxGeometry x="360" y="320" width="60" height="20" as="geometry" />
        </mxCell>
      </root>
    </mxGraphModel>
  </diagram>
</mxfile>
